<?xml version="1.0" encoding="UTF-8"?>
<svg id="Layer_1" data-name="Layer 1" xmlns="http://www.w3.org/2000/svg" viewBox="0 0 386.18 317.29">
  <defs>
    <style>
      .cls-1 {
        fill: #4fb0d3;
      }
    </style>
  </defs>
  <g>
    <path class="cls-1" d="M200.25,215.24l-.67-5.34c25.72-3.22,45.19-25.22,45.3-51.18.05-11.85-4.01-23.45-11.43-32.66l4.19-3.38c8.19,10.17,12.67,22.98,12.62,36.06-.11,28.66-21.61,52.95-50.01,56.5Z"/>
    <path class="cls-1" d="M160.61,118.17l-3.38-4.19c10.18-8.2,22.99-12.69,36.08-12.64,13.09.05,25.86,4.64,35.97,12.91l-3.41,4.16c-9.16-7.5-20.73-11.65-32.58-11.7-11.86-.05-23.47,4.02-32.68,11.45Z"/>
    <path class="cls-1" d="M186.05,215.26c-28.69-3.53-50.25-28.02-50.13-56.97.05-13.1,4.65-25.89,12.94-36l4.16,3.41c-7.51,9.16-11.67,20.74-11.72,32.61-.1,26.23,19.42,48.41,45.41,51.61l-.66,5.34Z"/>
  </g>
  <g>
    <path class="cls-1" d="M129.63,211.64c-12.52-14.94-19.37-33.92-19.3-53.45.17-42.71,33.61-78.81,76.14-82.17l.42,5.36c-39.76,3.14-71.03,36.89-71.19,76.83-.07,18.26,6.33,36,18.04,49.97l-4.12,3.45Z"/>
    <path class="cls-1" d="M192.76,241.27c-19.53-.08-38.46-7.08-53.3-19.72l3.49-4.1c13.88,11.82,31.58,18.37,49.83,18.44,18.28.07,36.04-6.35,50.02-18.08l3.46,4.12c-14.95,12.55-33.95,19.41-53.5,19.34Z"/>
    <path class="cls-1" d="M256.09,212.18l-4.1-3.49c11.84-13.88,18.39-31.59,18.46-49.86.16-39.9-30.81-73.89-70.51-77.38l.47-5.36c42.46,3.73,75.59,40.09,75.42,82.76-.08,19.54-7.09,38.48-19.75,53.33Z"/>
  </g>
  <path class="cls-1" d="M193.21,126.93c-17.42-.07-31.64,14.05-31.71,31.46-.07,17.42,14.05,31.64,31.46,31.71,17.42.07,31.64-14.05,31.71-31.46.07-17.42-14.05-31.64-31.46-31.71ZM205.85,173.74c-8.27-.03-14.94-6.76-14.91-15.03.03-8.27,6.76-14.94,15.03-14.91,8.27.03,14.94,6.76,14.91,15.03-.03,8.27-6.76,14.94-15.03,14.91Z"/>
</svg>