<?xml version="1.0" encoding="UTF-8"?>
<svg id="Layer_1" data-name="Layer 1" xmlns="http://www.w3.org/2000/svg" viewBox="0 0 742.88 317.29">
  <defs>
    <style>
      .cls-1 {
        fill: #fab048;
      }
    </style>
  </defs>
  <rect class="cls-1" width="742.88" height="317.29"/>
  <g>
    <g>
      <path d="M327.81,146.47h-12.24l-14.43-41.84-14.43,41.84h-12.24l-21.83-64.4h15.07l13.25,43.3,14.34-43.48h12.06l14.34,43.48,13.25-43.3h14.71l-21.83,64.4Z"/>
      <path d="M360.69,146.01v-63.94h14.07v63.94h-14.07Z"/>
      <path d="M419.7,95.04v50.97h-14.07v-50.97h-19.46v-12.97h52.98v12.97h-19.46Z"/>
      <path d="M494.79,146.01l-30.97-40.65v40.65h-13.89v-63.94h12.97l29.96,39.37v-39.37h13.89v63.94h-11.97Z"/>
      <path d="M522.1,146.01v-63.94h48.14v12.51h-34.26v12.97h30.14v12.51h-30.14v13.43h34.71v12.51h-48.6Z"/>
      <path d="M627.2,135.07c-1.12,2.4-2.68,4.42-4.69,6.05-2.01,1.63-4.4,2.88-7.18,3.74-2.78.86-5.86,1.29-9.24,1.29-4.75,0-9.4-.82-13.97-2.45-4.57-1.63-8.72-4.14-12.46-7.52l8.1-9.7c2.85,2.31,5.77,4.15,8.77,5.52,3,1.37,6.27,2.05,9.83,2.05,2.85,0,5.06-.52,6.63-1.56,1.57-1.04,2.36-2.48,2.36-4.32v-.18c0-.89-.16-1.68-.49-2.36-.33-.68-.95-1.32-1.87-1.91-.92-.59-2.2-1.19-3.84-1.78-1.64-.59-3.76-1.22-6.38-1.87-3.15-.77-6.01-1.63-8.57-2.58-2.56-.95-4.73-2.12-6.51-3.52-1.79-1.39-3.17-3.13-4.15-5.21-.98-2.08-1.47-4.66-1.47-7.74v-.18c0-2.85.53-5.41,1.59-7.7,1.06-2.28,2.55-4.26,4.47-5.92,1.92-1.66,4.2-2.94,6.86-3.83,2.66-.89,5.59-1.34,8.8-1.34,4.57,0,8.77.68,12.59,2.05,3.83,1.37,7.34,3.32,10.55,5.87l-7.12,10.32c-2.79-1.9-5.52-3.4-8.19-4.49-2.67-1.1-5.34-1.65-8.01-1.65s-4.67.52-6.01,1.56c-1.33,1.04-2,2.33-2,3.87v.18c0,1.01.19,1.88.58,2.63.39.74,1.08,1.41,2.1,2,1.01.59,2.39,1.16,4.15,1.69,1.76.53,3.97,1.16,6.65,1.87,3.15.83,5.96,1.77,8.43,2.8,2.47,1.04,4.55,2.28,6.25,3.74,1.7,1.45,2.97,3.16,3.84,5.12.86,1.96,1.29,4.3,1.29,7.03v.18c0,3.09-.56,5.83-1.68,8.23Z"/>
      <path d="M685.61,135.02c-1.12,2.4-2.68,4.41-4.68,6.04-2,1.63-4.39,2.87-7.16,3.73-2.77.86-5.85,1.29-9.22,1.29-4.74,0-9.38-.81-13.94-2.44-4.56-1.63-8.7-4.13-12.43-7.5l8.08-9.68c2.84,2.31,5.76,4.14,8.75,5.51,2.99,1.36,6.26,2.04,9.81,2.04,2.84,0,5.05-.52,6.62-1.55,1.57-1.04,2.35-2.47,2.35-4.31v-.18c0-.89-.16-1.67-.49-2.35-.33-.68-.95-1.32-1.87-1.91-.92-.59-2.2-1.18-3.83-1.78-1.63-.59-3.75-1.21-6.37-1.86-3.15-.77-6-1.63-8.55-2.57-2.55-.95-4.72-2.12-6.5-3.51-1.78-1.39-3.16-3.12-4.14-5.2-.98-2.07-1.47-4.65-1.47-7.73v-.18c0-2.84.53-5.4,1.59-7.68,1.06-2.28,2.54-4.25,4.46-5.91,1.91-1.66,4.19-2.93,6.85-3.82,2.65-.89,5.58-1.33,8.78-1.33,4.56,0,8.75.68,12.57,2.04,3.82,1.36,7.33,3.32,10.52,5.86l-7.1,10.3c-2.78-1.89-5.51-3.39-8.17-4.48-2.66-1.09-5.33-1.64-7.99-1.64s-4.66.52-5.99,1.55c-1.33,1.04-2,2.32-2,3.86v.18c0,1.01.19,1.88.58,2.62.39.74,1.08,1.41,2.09,2,1.01.59,2.39,1.15,4.14,1.69,1.75.53,3.96,1.15,6.63,1.86,3.15.83,5.95,1.76,8.41,2.8,2.46,1.04,4.54,2.28,6.23,3.73,1.69,1.45,2.97,3.15,3.83,5.11.86,1.95,1.29,4.29,1.29,7.02v.18c0,3.08-.56,5.82-1.68,8.21Z"/>
      <path d="M306.33,240.48c-1.77,1.4-3.7,2.6-5.8,3.61-2.1,1-4.4,1.77-6.9,2.28-2.5.52-5.3.78-8.4.78-4.69,0-9.04-.85-13.06-2.56-4.02-1.7-7.49-4.03-10.41-6.99-2.92-2.95-5.21-6.44-6.85-10.46s-2.47-8.31-2.47-12.88v-.18c0-4.57.82-8.85,2.47-12.83,1.64-3.99,3.93-7.49,6.85-10.51,2.92-3.01,6.42-5.39,10.51-7.12,4.08-1.74,8.59-2.6,13.52-2.6,2.98,0,5.71.24,8.18.73,2.47.49,4.7,1.16,6.71,2.01,2.01.85,3.87,1.89,5.57,3.11,1.7,1.22,3.29,2.56,4.75,4.02l-8.95,10.32c-2.5-2.25-5.04-4.02-7.63-5.3-2.59-1.28-5.5-1.92-8.72-1.92-2.68,0-5.16.52-7.44,1.55-2.28,1.04-4.25,2.47-5.89,4.29-1.64,1.83-2.92,3.94-3.84,6.35-.91,2.41-1.37,4.98-1.37,7.72v.18c0,2.74.46,5.33,1.37,7.76.91,2.44,2.18,4.57,3.79,6.39,1.61,1.83,3.56,3.27,5.85,4.34,2.28,1.07,4.8,1.6,7.54,1.6,3.65,0,6.74-.67,9.27-2.01,2.53-1.34,5.04-3.17,7.54-5.48l8.95,9.04c-1.64,1.77-3.35,3.35-5.12,4.75Z"/>
      <path d="M360.24,247.17v-26.51h-26.8v26.51h-14.53v-66.05h14.53v26.14h26.8v-26.14h14.53v66.05h-14.53Z"/>
      <path d="M439.78,247.17l-6.04-14.81h-27.93l-6.04,14.81h-14.81l28.31-66.52h13.4l28.31,66.52h-15.19ZM419.78,198.11l-8.77,21.42h17.55l-8.78-21.42Z"/>
      <path d="M465.82,247.17v-66.05h14.53v66.05h-14.53Z"/>
      <path d="M543.19,247.17l-31.99-41.99v41.99h-14.34v-66.05h13.4l30.95,40.67v-40.67h14.34v66.05h-12.36Z"/>
    </g>
    <g>
      <g>
        <path d="M145.51,221.59l-.67-5.34c25.72-3.22,45.19-25.22,45.3-51.18.05-11.85-4.01-23.45-11.43-32.66l4.19-3.38c8.19,10.17,12.67,22.98,12.62,36.06-.11,28.66-21.61,52.95-50.01,56.5Z"/>
        <path d="M105.87,124.51l-3.38-4.19c10.18-8.2,22.99-12.69,36.08-12.64,13.09.05,25.86,4.64,35.97,12.91l-3.41,4.16c-9.16-7.5-20.73-11.65-32.58-11.7-11.86-.05-23.47,4.02-32.68,11.45Z"/>
        <path d="M131.31,221.6c-28.69-3.53-50.25-28.02-50.13-56.97.05-13.1,4.65-25.89,12.94-36l4.16,3.41c-7.51,9.16-11.67,20.74-11.72,32.61-.1,26.23,19.42,48.41,45.41,51.61l-.66,5.34Z"/>
      </g>
      <g>
        <path d="M74.89,217.98c-12.52-14.94-19.37-33.92-19.3-53.45.17-42.71,33.61-78.81,76.14-82.17l.42,5.36c-39.76,3.14-71.03,36.89-71.19,76.83-.07,18.26,6.33,36,18.04,49.97l-4.12,3.45Z"/>
        <path d="M138.02,247.61c-19.53-.08-38.46-7.08-53.3-19.72l3.49-4.1c13.88,11.82,31.58,18.37,49.83,18.44,18.28.07,36.04-6.35,50.02-18.08l3.46,4.12c-14.95,12.55-33.95,19.41-53.5,19.34Z"/>
        <path d="M201.35,218.52l-4.1-3.49c11.84-13.88,18.39-31.59,18.46-49.86.16-39.9-30.81-73.89-70.51-77.38l.47-5.36c42.46,3.73,75.59,40.09,75.42,82.76-.08,19.54-7.09,38.48-19.75,53.33Z"/>
      </g>
      <path d="M138.47,133.27c-17.42-.07-31.64,14.05-31.71,31.46-.07,17.42,14.05,31.64,31.46,31.71,17.42.07,31.64-14.05,31.71-31.46.07-17.42-14.05-31.64-31.46-31.71ZM151.11,180.08c-8.27-.03-14.94-6.76-14.91-15.03.03-8.27,6.76-14.94,15.03-14.91,8.27.03,14.94,6.76,14.91,15.03-.03,8.27-6.76,14.94-15.03,14.91Z"/>
    </g>
  </g>
</svg>