<?xml version="1.0" encoding="UTF-8"?>
<svg id="Layer_1" data-name="Layer 1" xmlns="http://www.w3.org/2000/svg" viewBox="0 0 1596.16 317.29">
  <defs>
    <style>
      .cls-1 {
        fill: #fff;
      }
    </style>
  </defs>
  <path class="cls-1" d="M493.58,203.92v-89.74h19.87v89.74h-19.87Z"/>
  <path class="cls-1" d="M576.95,132.39v71.54h-19.87v-71.54h-27.49v-18.21h74.85v18.21h-27.49Z"/>
  <path class="cls-1" d="M683.03,203.92l-43.75-57.43v57.43h-19.62v-90.34h18.33l42.33,55.62v-55.62h19.62v90.34h-16.91Z"/>
  <path class="cls-1" d="M721.62,203.27v-89.69h68.01v17.55h-48.4v18.19h42.59v17.55h-42.59v18.83h49.04v17.55h-68.66Z"/>
  <path class="cls-1" d="M870.23,187.76c-1.56,3.34-3.73,6.15-6.52,8.42-2.79,2.27-6.12,4-9.98,5.2-3.87,1.2-8.15,1.79-12.86,1.79-6.6,0-13.08-1.14-19.44-3.4-6.36-2.27-12.13-5.76-17.33-10.46l11.27-13.49c3.96,3.22,8.03,5.78,12.19,7.67,4.17,1.9,8.73,2.85,13.68,2.85,3.96,0,7.04-.72,9.22-2.17,2.19-1.44,3.28-3.44,3.28-6v-.25c0-1.24-.23-2.33-.68-3.28-.46-.95-1.32-1.84-2.61-2.66-1.28-.82-3.06-1.65-5.34-2.48-2.28-.82-5.23-1.69-8.87-2.6-4.39-1.07-8.36-2.27-11.92-3.59-3.56-1.32-6.58-2.95-9.06-4.89-2.48-1.94-4.41-4.35-5.77-7.24-1.37-2.89-2.05-6.48-2.05-10.77v-.25c0-3.96.74-7.53,2.21-10.71,1.48-3.18,3.55-5.92,6.21-8.23,2.67-2.31,5.85-4.09,9.55-5.32,3.7-1.24,7.78-1.86,12.23-1.86,6.35,0,12.19.95,17.52,2.85,5.32,1.9,10.21,4.62,14.67,8.17l-9.9,14.36c-3.88-2.64-7.68-4.72-11.39-6.25-3.71-1.53-7.43-2.29-11.14-2.29s-6.5.72-8.36,2.17c-1.86,1.44-2.79,3.24-2.79,5.38v.25c0,1.4.27,2.62.81,3.65.54,1.03,1.51,1.96,2.92,2.79,1.41.83,3.33,1.61,5.77,2.35,2.44.74,5.52,1.61,9.25,2.6,4.39,1.16,8.29,2.46,11.73,3.9,3.43,1.44,6.33,3.18,8.69,5.2,2.36,2.02,4.14,4.39,5.34,7.12,1.2,2.72,1.8,5.98,1.8,9.78v.25c0,4.29-.78,8.11-2.34,11.45Z"/>
  <path class="cls-1" d="M951.48,187.61c-1.56,3.36-3.72,6.17-6.5,8.45-2.78,2.28-6.1,4.02-9.96,5.22-3.86,1.2-8.13,1.8-12.83,1.8-6.59,0-13.05-1.14-19.39-3.42-6.34-2.28-12.1-5.78-17.29-10.5l11.24-13.55c3.95,3.23,8.01,5.8,12.17,7.71,4.16,1.91,8.71,2.86,13.65,2.86,3.95,0,7.02-.73,9.2-2.18,2.18-1.45,3.27-3.46,3.27-6.03v-.25c0-1.24-.23-2.34-.68-3.29-.46-.95-1.32-1.84-2.6-2.67-1.28-.83-3.06-1.66-5.32-2.49-2.27-.83-5.22-1.7-8.85-2.61-4.38-1.08-8.34-2.28-11.89-3.6-3.55-1.32-6.56-2.96-9.04-4.91-2.48-1.95-4.4-4.37-5.76-7.27-1.36-2.9-2.04-6.5-2.04-10.81v-.25c0-3.98.74-7.56,2.21-10.75,1.47-3.19,3.54-5.94,6.2-8.27,2.66-2.32,5.83-4.1,9.53-5.34,3.69-1.24,7.76-1.86,12.21-1.86,6.34,0,12.17.95,17.48,2.86,5.31,1.91,10.19,4.64,14.64,8.2l-9.88,14.42c-3.87-2.65-7.66-4.74-11.36-6.28-3.71-1.53-7.41-2.3-11.12-2.3s-6.48.73-8.34,2.18c-1.85,1.45-2.78,3.25-2.78,5.41v.25c0,1.41.27,2.63.81,3.67.54,1.04,1.5,1.97,2.91,2.8,1.4.83,3.32,1.62,5.76,2.36,2.44.75,5.51,1.62,9.23,2.61,4.38,1.16,8.28,2.47,11.7,3.92,3.43,1.45,6.31,3.19,8.67,5.22,2.35,2.03,4.13,4.41,5.32,7.15,1.2,2.73,1.8,6.01,1.8,9.82v.25c0,4.31-.78,8.14-2.33,11.5Z"/>
  <path class="cls-1" d="M1103.37,193.59c-2.4,1.9-5.02,3.53-7.87,4.89-2.85,1.36-5.97,2.4-9.35,3.1-3.39.7-7.18,1.05-11.4,1.05-6.36,0-12.26-1.16-17.71-3.47-5.45-2.31-10.16-5.47-14.12-9.48-3.96-4-7.06-8.73-9.29-14.18-2.23-5.45-3.34-11.27-3.34-17.47v-.25c0-6.19,1.11-11.99,3.34-17.4,2.23-5.41,5.33-10.16,9.29-14.25,3.96-4.09,8.71-7.31,14.25-9.66,5.53-2.35,11.64-3.53,18.33-3.53,4.04,0,7.74.33,11.09.99,3.34.66,6.38,1.57,9.1,2.72,2.72,1.16,5.24,2.56,7.56,4.21,2.31,1.65,4.46,3.47,6.44,5.45l-12.14,14c-3.39-3.05-6.83-5.45-10.34-7.18-3.51-1.73-7.45-2.6-11.83-2.6-3.63,0-7,.7-10.1,2.11-3.1,1.4-5.76,3.34-7.99,5.82-2.23,2.48-3.96,5.35-5.2,8.61-1.24,3.26-1.86,6.75-1.86,10.47v.25c0,3.72.62,7.23,1.86,10.53,1.24,3.3,2.95,6.19,5.14,8.67,2.19,2.48,4.83,4.44,7.93,5.88,3.1,1.45,6.5,2.17,10.22,2.17,4.95,0,9.15-.91,12.57-2.72,3.43-1.82,6.83-4.29,10.22-7.43l12.14,12.26c-2.23,2.4-4.54,4.54-6.94,6.44Z"/>
  <path class="cls-1" d="M1176.47,202.8v-35.89h-36.34v35.89h-19.7v-89.4h19.7v35.38h36.34v-35.38h19.7v89.4h-19.7Z"/>
  <path class="cls-1" d="M1284.33,203.11l-8.19-19.89h-37.87l-8.19,19.89h-20.09l38.38-89.31h18.17l38.38,89.31h-20.6ZM1257.2,137.23l-11.9,28.76h23.8l-11.9-28.76Z"/>
  <path class="cls-1" d="M1319.64,203.11v-90.16h19.7v90.16h-19.7Z"/>
  <path class="cls-1" d="M1424.56,202.52l-43.37-56.54v56.54h-19.45v-88.93h18.17l41.97,54.76v-54.76h19.45v88.93h-16.76Z"/>
  <path class="cls-1" d="M447.12,203.76h-17.29l-20.39-58.3-20.39,58.3h-17.29l-30.84-89.74h21.29l18.71,60.33,20.26-60.59h17.04l20.26,60.59,18.71-60.33h20.78l-30.84,89.74Z"/>
  <g>
    <g>
      <path class="cls-1" d="M239.11,211.69l-.63-5c24.11-3.01,42.36-23.64,42.45-47.97.04-11.11-3.76-21.98-10.71-30.61l3.93-3.16c7.68,9.53,11.88,21.53,11.83,33.8-.11,26.86-20.26,49.62-46.87,52.95Z"/>
      <path class="cls-1" d="M201.96,120.71l-3.16-3.93c9.54-7.69,21.55-11.89,33.82-11.84,12.27.05,24.24,4.35,33.71,12.1l-3.19,3.9c-8.58-7.03-19.42-10.92-30.53-10.96-11.12-.04-21.99,3.77-30.63,10.73Z"/>
      <path class="cls-1" d="M225.8,211.7c-26.89-3.3-47.09-26.26-46.98-53.39.05-12.28,4.36-24.26,12.13-33.74l3.9,3.2c-7.04,8.59-10.94,19.44-10.98,30.56-.1,24.58,18.2,45.37,42.56,48.36l-.61,5.01Z"/>
    </g>
    <g>
      <path class="cls-1" d="M172.92,208.31c-11.73-14-18.16-31.79-18.08-50.09.16-40.03,31.5-73.86,71.36-77.01l.4,5.03c-37.26,2.95-66.57,34.57-66.71,72-.07,17.11,5.94,33.74,16.91,46.83l-3.87,3.24Z"/>
      <path class="cls-1" d="M232.09,236.08c-18.3-.07-36.04-6.64-49.95-18.48l3.27-3.84c13.01,11.08,29.59,17.21,46.7,17.28,17.13.07,33.77-5.95,46.87-16.94l3.24,3.86c-14.01,11.76-31.82,18.19-50.14,18.12Z"/>
      <path class="cls-1" d="M291.44,208.81l-3.84-3.27c11.09-13.01,17.24-29.61,17.3-46.73.15-37.4-28.88-69.25-66.08-72.52l.44-5.02c39.79,3.5,70.84,37.57,70.68,77.57-.07,18.31-6.65,36.07-18.51,49.98Z"/>
    </g>
    <path class="cls-1" d="M232.51,128.92c-16.32-.06-29.66,13.16-29.72,29.49-.06,16.32,13.16,29.66,29.49,29.72,16.32.06,29.66-13.16,29.72-29.49.06-16.32-13.16-29.66-29.49-29.72ZM244.35,172.79c-7.75-.03-14-6.34-13.97-14.08.03-7.75,6.34-14,14.08-13.97,7.75.03,14,6.34,13.97,14.08-.03,7.75-6.34,14-14.08,13.97Z"/>
  </g>
</svg>